<svg xmlns="http://www.w3.org/2000/svg" viewBox="0 0 64 64" width="64" height="64">
  <defs>
    <linearGradient id="medicalGradient" x1="0%" y1="0%" x2="100%" y2="100%">
      <stop offset="0%" style="stop-color:#40E0D0;stop-opacity:1" />
      <stop offset="50%" style="stop-color:#48BB78;stop-opacity:1" />
      <stop offset="100%" style="stop-color:#38A169;stop-opacity:1" />
    </linearGradient>
    <filter id="shadow" x="-20%" y="-20%" width="140%" height="140%">
      <feDropShadow dx="2" dy="2" stdDeviation="3" flood-color="#000000" flood-opacity="0.3"/>
    </filter>
  </defs>
  
  <!-- Background circle -->
  <circle cx="32" cy="32" r="30" fill="url(#medicalGradient)" filter="url(#shadow)"/>
  
  <!-- Stethoscope design -->
  <!-- Main tube -->
  <path d="M20 15 Q15 20 15 25 Q15 35 25 40 Q30 42 35 40 Q45 35 45 25 Q45 20 40 15" 
        stroke="white" stroke-width="3" fill="none" stroke-linecap="round"/>
  
  <!-- Left earpiece -->
  <circle cx="20" cy="15" r="3" fill="white"/>
  
  <!-- Right earpiece -->
  <circle cx="40" cy="15" r="3" fill="white"/>
  
  <!-- Chest piece -->
  <circle cx="30" cy="45" r="8" fill="white" stroke="rgba(255,255,255,0.3)" stroke-width="1"/>
  <circle cx="30" cy="45" r="5" fill="none" stroke="url(#medicalGradient)" stroke-width="2"/>
  
  <!-- Connection tube -->
  <path d="M30 37 Q30 40 30 42" stroke="white" stroke-width="3" stroke-linecap="round"/>
  
  <!-- Medical cross accent -->
  <g transform="translate(30,45)">
    <rect x="-1.5" y="-4" width="3" height="8" fill="url(#medicalGradient)" rx="1"/>
    <rect x="-4" y="-1.5" width="8" height="3" fill="url(#medicalGradient)" rx="1"/>
  </g>
</svg>